# xmcd
#
# Track frame offsets:
# 225
# 17452
# 36059
# 62570
# 84305
# 106544
# 126782
# 142614
# 162142
# 181484
# 196254
# 212644
# 232625
# 251315
# 269723
# 289700
# 308984
#
# Disc length: 4426 seconds
#
#
# Revision: 0
# Processed by: cddbd v1.5.2PL0 Copyright (c) Steve Scherf et al.
# Submitted via: FreeRIP 2.96 
#
DISCID=d3114711
DTITLE=Falco - Hoch wie nie [CD1]
DYEAR=2007
DGENRE=Pop
TTITLE0=Der Kommissar
TTITLE1=Vienna Calling
TTITLE2=Jeanny
TTITLE3=Emotional - Album Version
TTITLE4=The Sound Of Musik
TTITLE5=Junge Roemer
TTITLE6=Wiener Blut
TTITLE7=Hoch wie nie
TTITLE8=Munich Girls
TTITLE9=Nachtflug
TTITLE10=No Answer (Hallo Deutschland)
TTITLE11=Nur mit dir
TTITLE12=Helden von Heute
TTITLE13=Kann es Liebe sein
TTITLE14=Ihre Tochter
TTITLE15=Auf der Flucht
TTITLE16=Ganz Wien
EXTD=
EXTT0=
EXTT1=
EXTT2=
EXTT3=
EXTT4=
EXTT5=
EXTT6=
EXTT7=
EXTT8=
EXTT9=
EXTT10=
EXTT11=
EXTT12=
EXTT13=
EXTT14=
EXTT15=
EXTT16=
PLAYORDER=
